<svg width="138" height="30" viewBox="0 0 138 30" fill="none" xmlns="http://www.w3.org/2000/svg">
<path d="M46 1H137V7H46V1Z" fill="#BDBDBD"/>
<path d="M46 1V0.5C45.7239 0.5 45.5 0.723858 45.5 1H46ZM137 1H137.5C137.5 0.723858 137.276 0.5 137 0.5V1ZM137 7V7.5C137.276 7.5 137.5 7.27614 137.5 7H137ZM46 7H45.5C45.5 7.27614 45.7239 7.5 46 7.5V7ZM46 1.5H137V0.5H46V1.5ZM136.5 1V7H137.5V1H136.5ZM137 6.5H46V7.5H137V6.5ZM46.5 7V1H45.5V7H46.5Z" fill="#BDBDBD"/>
<path d="M1 12H137V18H1V12Z" fill="#BDBDBD"/>
<path d="M1 12V11.5C0.723858 11.5 0.5 11.7239 0.5 12H1ZM137 12H137.5C137.5 11.7239 137.276 11.5 137 11.5V12ZM137 18V18.5C137.276 18.5 137.5 18.2761 137.5 18H137ZM1 18H0.5C0.5 18.2761 0.723858 18.5 1 18.5V18ZM1 12.5H137V11.5H1V12.5ZM136.5 12V18H137.5V12H136.5ZM137 17.5H1V18.5H137V17.5ZM1.5 18V12H0.5V18H1.5Z" fill="#BDBDBD"/>
<rect x="46" y="23" width="91" height="6" fill="#BDBDBD" stroke="#BDBDBD" stroke-miterlimit="2.3662" stroke-linejoin="round"/>
</svg>
